# xmcd
# 
# Track frame offsets:
#     150
#     18607
#     32857
#     57950
#     87660
#     99175
#     113847
#     119235
#     123772
#     130770
#     144210
#     149840
#     156272
#     179695
#     202210
#     207430
#     216807
#     225677
#     243592
#     255070
#     271650
#     286532
#     290765
# 
# Disc length: 4044
# 
# Revision: 2
# Processed by: cddbd v1.5.2PL0 Copyright (c) Steve Scherf et al.
# Submitted via: fre:ac v1.0.17
# 
DISCID=630fca17
DTITLE=Chicago - Chicago II
DYEAR=1970
DGENRE=Rock
TTITLE0=Movin' In
TTITLE1=The Road
TTITLE2=Poem For The People
TTITLE3=In The Country
TTITLE4=Wake Up Sunshine
TTITLE5=Make Me Smile
TTITLE6=So Much To Say So Much To Give
TTITLE7=Anxiety's Moment
TTITLE8=West Virginia Fantasies
TTITLE9=Colour My World
TTITLE10=To Be Free
TTITLE11=Now More Than Ever
TTITLE12=Fancy Colours
TTITLE13=25 Or 6 To 4
TTITLE14=Prelude
TTITLE15=A.M. Mourning
TTITLE16=P.M. Mourning
TTITLE17=Memories Of Love
TTITLE18=It Better End Soon 1st Movement
TTITLE19=It Better End Soon 2nd Movement
TTITLE20=It Better End Soon 3rd Movement
TTITLE21=It Better End Soon 4th Movement
TTITLE22=Where Do We Go From Here
EXTD=YEAR: 1970
EXTT0=
EXTT1=
EXTT2=
EXTT3=
EXTT4=
EXTT5=
EXTT6=
EXTT7=
EXTT8=
EXTT9=
EXTT10=
EXTT11=
EXTT12=
EXTT13=
EXTT14=
EXTT15=
EXTT16=
EXTT17=
EXTT18=
EXTT19=
EXTT20=
EXTT21=
EXTT22=
PLAYORDER=
